<svg width="22" height="22" viewBox="0 0 22 22" fill="none" xmlns="http://www.w3.org/2000/svg">
<path d="M20.7238 8.57655L11.8467 0.464516C11.5199 0.165624 11.0939 0 10.6522 0C10.2104 0 9.78448 0.165624 9.45764 0.464516L0.580522 8.57989C0.398025 8.74693 0.252161 8.95039 0.152237 9.17728C0.0523143 9.40418 0.00052712 9.64953 0.000180495 9.89768V20.1733C-0.00610186 20.6232 0.151805 21.0599 0.444036 21.4007C0.610802 21.5901 0.815853 21.7415 1.04548 21.8449C1.27511 21.9482 1.52403 22.0011 1.7756 21.9999H7.10187C7.33731 21.9999 7.5631 21.9058 7.72958 21.7384C7.89606 21.571 7.98959 21.344 7.98959 21.1072V15.7513C7.98959 15.5145 8.08311 15.2875 8.24959 15.1201C8.41607 14.9527 8.64186 14.8586 8.8773 14.8586H12.4281C12.6636 14.8586 12.8894 14.9527 13.0559 15.1201C13.2223 15.2875 13.3159 15.5145 13.3159 15.7513V21.1072C13.3159 21.344 13.4094 21.571 13.5759 21.7384C13.7423 21.9058 13.9681 21.9999 14.2036 21.9999H19.5298C19.8217 22.0032 20.1096 21.9318 20.3665 21.7924C20.65 21.6391 20.887 21.4114 21.0523 21.1337C21.2176 20.8559 21.305 20.5383 21.3053 20.2146V9.89768C21.3052 9.64888 21.2535 9.40284 21.1534 9.17533C21.0532 8.94782 20.9069 8.74386 20.7238 8.57655ZM10.6683 11.9776C10.1379 11.9776 9.61936 11.8194 9.17833 11.5231C8.7373 11.2268 8.39355 10.8057 8.19052 10.313C7.98749 9.82023 7.93432 9.27802 8.03771 8.75489C8.14111 8.23177 8.39643 7.75122 8.77141 7.374C9.14638 6.99678 9.62416 6.73983 10.1443 6.63564C10.6645 6.53146 11.2038 6.58471 11.6938 6.78866C12.1839 6.99261 12.6029 7.33811 12.8977 7.78148C13.1926 8.22484 13.35 8.74616 13.3503 9.27952C13.3504 9.63378 13.2811 9.9846 13.1464 10.3119C13.0117 10.6393 12.8142 10.9367 12.5651 11.1873C12.316 11.4378 12.0203 11.6366 11.6949 11.7722C11.3694 11.9078 11.0206 11.9776 10.6683 11.9776Z" fill="#00397A"/>
</svg>
