<svg width="128" height="22" viewBox="0 0 128 22" fill="none" xmlns="http://www.w3.org/2000/svg">
<path d="M20.7238 8.57655L11.8467 0.464516C11.5199 0.165624 11.0939 0 10.6522 0C10.2104 0 9.78448 0.165624 9.45764 0.464516L0.580522 8.57989C0.398025 8.74693 0.252161 8.95039 0.152237 9.17728C0.0523143 9.40418 0.00052712 9.64953 0.000180495 9.89768V20.1733C-0.00610186 20.6232 0.151805 21.0599 0.444036 21.4007C0.610802 21.5901 0.815853 21.7415 1.04548 21.8449C1.27511 21.9482 1.52403 22.0011 1.7756 21.9999H7.10187C7.33731 21.9999 7.5631 21.9058 7.72958 21.7384C7.89606 21.571 7.98959 21.344 7.98959 21.1072V15.7513C7.98959 15.5145 8.08311 15.2875 8.24959 15.1201C8.41607 14.9527 8.64186 14.8586 8.8773 14.8586H12.4281C12.6636 14.8586 12.8894 14.9527 13.0559 15.1201C13.2223 15.2875 13.3159 15.5145 13.3159 15.7513V21.1072C13.3159 21.344 13.4094 21.571 13.5759 21.7384C13.7423 21.9058 13.9681 21.9999 14.2036 21.9999H19.5298C19.8217 22.0032 20.1096 21.9318 20.3665 21.7924C20.65 21.6391 20.887 21.4114 21.0523 21.1337C21.2176 20.8559 21.305 20.5383 21.3053 20.2146V9.89768C21.3052 9.64888 21.2535 9.40284 21.1534 9.17533C21.0532 8.94782 20.9069 8.74386 20.7238 8.57655V8.57655ZM10.6683 11.9776C10.1379 11.9776 9.61936 11.8194 9.17833 11.5231C8.7373 11.2268 8.39355 10.8057 8.19052 10.313C7.98749 9.82023 7.93432 9.27802 8.03771 8.75489C8.14111 8.23177 8.39643 7.75122 8.77141 7.374C9.14638 6.99678 9.62416 6.73983 10.1443 6.63564C10.6645 6.53146 11.2038 6.58471 11.6938 6.78866C12.1839 6.99261 12.6029 7.33811 12.8977 7.78148C13.1926 8.22484 13.35 8.74616 13.3503 9.27952C13.3504 9.63378 13.2811 9.9846 13.1464 10.3119C13.0117 10.6393 12.8142 10.9367 12.5651 11.1873C12.316 11.4378 12.0203 11.6366 11.6949 11.7722C11.3694 11.9078 11.0206 11.9776 10.6683 11.9776V11.9776Z" fill="#00397A"/>
<path d="M35.9253 19V3.842H33.2413V19H35.9253ZM44.9462 8.462C43.8902 8.462 42.2842 9.056 41.7562 10.354V8.726H39.2042V19H41.7562V13.544C41.7562 11.564 43.2082 10.882 44.3742 10.882C45.5182 10.882 46.5082 11.762 46.5082 13.412V19H49.0602V13.236C49.0602 10.244 47.5862 8.462 44.9462 8.462ZM64.3519 8.462C63.3179 8.462 61.7119 8.924 60.8979 10.53C60.2819 9.232 59.0719 8.462 57.5759 8.462C56.2779 8.462 54.8039 9.232 54.5179 10.618V8.726H51.9659V19H54.5179V13.522C54.5179 11.564 55.7059 10.86 56.8939 10.86C57.9939 10.86 58.8519 11.74 58.8519 13.368V19H61.4039V13.918C61.4039 11.872 62.2399 10.86 63.7139 10.86C64.9019 10.86 65.7599 11.718 65.7599 13.368V19H68.2899V13.236C68.2899 10.244 66.9259 8.462 64.3519 8.462ZM78.3879 14.226C78.3879 16.228 76.9359 16.888 75.7699 16.888C74.6259 16.888 73.6359 16.03 73.6359 14.38V8.726H71.0839V14.49C71.0839 17.482 72.5579 19.264 75.1979 19.264C76.2319 19.264 77.8599 18.692 78.3879 17.394V19H80.9399V8.726H78.3879V14.226ZM93.9876 13.764C93.9876 10.552 91.6776 8.462 88.7516 8.462C85.8036 8.462 83.3616 10.574 83.3616 13.852C83.3616 17.064 85.6936 19.264 88.7516 19.264C90.6216 19.264 92.4476 18.428 93.3936 16.932L91.6776 15.634C91.0836 16.47 90.0056 16.954 88.9056 16.954C87.3656 16.954 86.2656 16.184 85.9796 14.754H93.9436C93.9656 14.38 93.9876 14.05 93.9876 13.764ZM85.9796 12.972C86.2876 11.41 87.4096 10.728 88.7736 10.728C90.2036 10.728 91.3036 11.564 91.4576 12.972H85.9796ZM102.315 8.462C101.017 8.462 99.5871 8.99 98.8831 10.09V3.138H96.3311V19H98.8831V17.614C99.5871 18.714 101.061 19.264 102.293 19.264C104.999 19.264 107.353 17.13 107.353 13.852C107.353 10.552 105.021 8.462 102.315 8.462ZM101.897 16.888C100.335 16.888 98.9271 15.634 98.9271 13.83C98.9271 12.026 100.423 10.838 101.897 10.838C103.481 10.838 104.801 12.114 104.801 13.83C104.801 15.546 103.481 16.888 101.897 16.888ZM112.332 19V3.138H109.78V19H112.332ZM122.538 14.226C122.538 16.228 121.086 16.888 119.92 16.888C118.776 16.888 117.786 16.03 117.786 14.38V8.726H115.234V14.49C115.234 17.482 116.708 19.264 119.348 19.264C120.382 19.264 122.01 18.692 122.538 17.394V19H125.09V8.726H122.538V14.226Z" fill="#00397A"/>
</svg>
